<svg id="Calque_1" data-name="Calque 1" xmlns="http://www.w3.org/2000/svg" viewBox="0 0 163.2 276.99"><defs><style>.cls-1{fill:#fff;}</style></defs><path class="cls-1" d="M114.12,23.32" transform="translate(-60.56 -3.51)"/><path class="cls-1" d="M142.16,3.51c-45.06,0-81.6,62-81.6,138.49s36.54,138.49,81.6,138.49,81.6-62,81.6-138.49S187.23,3.51,142.16,3.51ZM116.65,53.22c32.54-44.94-23,29.42-3.2,27.37S68.77,250,130.74,249.27C82.48,252.88,78.48,105.92,116.65,53.22Zm67.81,100.4a81.79,81.79,0,0,1-13.91,13,148.29,148.29,0,0,1-16.92,10.91q-8.85,4.9-14.86,7.75-5.06,2.53-10.12,5.38a47.31,47.31,0,0,0-9,6.48,30.93,30.93,0,0,0-6.48,8.38,22.42,22.42,0,0,0-2.53,10.75q0,9.17,2.69,14.86a25.31,25.31,0,0,0,6.48,8.85,19.26,19.26,0,0,0,7.59,4.11,25.94,25.94,0,0,0,6,.95q6.65,0,10.6-3.32a29.14,29.14,0,0,0,6.32-7.27,26.15,26.15,0,0,0,3.16-7.27c.53-2.22.9-3.32,1.11-3.32.42,0,.63.52.63,1.58a20.17,20.17,0,0,1-1.26,5.69,29.43,29.43,0,0,1-4,7.59,27.34,27.34,0,0,1-6.79,6.64,16.87,16.87,0,0,1-9.81,2.84,54.36,54.36,0,0,1-5.69-.63,23.54,23.54,0,0,1-9.17-3.63,27.56,27.56,0,0,1-8.53-9.33q-3.8-6.33-3.8-17.39,0-8.53,5.69-17.08t18-15.81q2.21-1.26,7.59-4.42a119.18,119.18,0,0,0,11.06-7.44,62.88,62.88,0,0,0,10-9.17q4.28-4.89,4.27-9.32a16.84,16.84,0,0,0-4.9-11.86,46.69,46.69,0,0,0-11.07-8.7A67.48,67.48,0,0,0,135,128q-5.68-1.91-7.58-1.9-4.44,0-12,2.84L162.8,81.52q-6,0-13.6-.47A55.92,55.92,0,0,1,135,78.36,31.37,31.37,0,0,1,123.75,72q-4.59-4.11-4.58-11.7a15.93,15.93,0,0,1,2-6.64,74.63,74.63,0,0,1,4.58-7.91,60.8,60.8,0,0,1,5.07-6.64q2.52-2.84,3.47-2.84c.42,0,.42.84,0,2.53a19.71,19.71,0,0,0-.63,4.74q0,3.16,4.59,6.32a50,50,0,0,0,10.9,5.54,87.07,87.07,0,0,0,13.44,3.79,62.49,62.49,0,0,0,11.86,1.42q7.91,0,18.34-4.11L140.35,109a187.58,187.58,0,0,1,25,7.12,73,73,0,0,1,17.23,9.33q7.75,5.69,7.75,13.91Q190.31,146.67,184.46,153.62Z" transform="translate(-60.56 -3.51)"/></svg>