<?xml version="1.0" encoding="utf-8"?>
<!-- Generator: Adobe Illustrator 25.0.0, SVG Export Plug-In . SVG Version: 6.00 Build 0)  -->
<svg version="1.1" id="Calque_1" xmlns="http://www.w3.org/2000/svg" xmlns:xlink="http://www.w3.org/1999/xlink" x="0px" y="0px"
	 viewBox="0 0 841.9 595.3" style="enable-background:new 0 0 841.9 595.3;" xml:space="preserve">
<style type="text/css">
	.st0{fill:none;stroke:#F9F9FA;stroke-width:3;stroke-miterlimit:10;}
	.st1{fill:none;stroke:#F9F9FA;stroke-miterlimit:10;}
	.st2{fill:#F9F9FA;}
	.st3{font-family:'Arial-Black';}
	.st4{font-size:28.8762px;}
	.st5{font-size:20.1938px;}
	.st6{letter-spacing:-4;}
	.st7{font-family:'ArialMT';}
	.st8{font-size:19.3571px;}
	.st9{clip-path:url(#SVGID_3_);}
	.st10{clip-path:url(#SVGID_4_);fill:#010101;stroke:#F9F9FA;stroke-miterlimit:10;}
</style>
<g>
	<polygon class="st0" points="358.1,532.3 259.3,550.3 204.7,423.5 142.4,447.4 105.8,285.9 50.7,42.9 367.2,3 769.4,8.9 
		734.1,595.3 582.9,583.3 589.9,435.5 523.4,363.5 410,346.6 344,443.4 341,456.4 	"/>
	<polygon class="st0" points="303.7,258.5 105.8,285.9 142.4,447.4 204.7,423.5 182.7,327.6 303.7,317.6 299.6,293.6 310.7,292.6 	
		"/>
	<polygon class="st0" points="275.4,262.4 252.8,169.1 87.8,206.7 105.8,285.9 	"/>
	<polygon class="st0" points="219.5,21.6 252.8,169.1 87.8,206.7 50.7,42.9 	"/>
	<polyline class="st0" points="587.8,479.9 666.8,488.8 674.5,438.6 685.6,267.8 689.2,227.5 	"/>
	<polygon class="st1" points="342.4,462.6 242.4,406.5 248.7,364.8 286.4,373 396.2,299.1 446,299.1 474.1,358.1 410,346.6 
		344,443.4 	"/>
	<polygon class="st1" points="262.9,211 412.8,185.1 446,158.6 543,142.8 689.2,185.8 703.9,8 367.2,3 219.5,21.6 	"/>
	<polygon class="st1" points="431.3,3 446,158.6 543,142.8 536,5.5 434.4,3 	"/>
	<polygon class="st1" points="431.3,222.5 461.7,203.5 543,200.9 562.8,211.7 553.9,282.5 567.3,347.7 563.9,407.3 523.4,363.5 
		474.1,358.1 446,299.1 	"/>
	<line class="st0" x1="240" y1="405.3" x2="342.4" y2="462.6"/>
	<ellipse class="st0" cx="284.8" cy="158.6" rx="23.3" ry="23"/>
	<ellipse class="st0" cx="271.7" cy="103.8" rx="23.3" ry="23"/>
	<ellipse class="st0" cx="334" cy="119.5" rx="23.3" ry="23"/>
	<ellipse class="st0" cx="348.3" cy="42" rx="14.3" ry="14.2"/>
	<ellipse class="st0" cx="403.9" cy="35.8" rx="14.3" ry="14.2"/>
	<ellipse class="st0" cx="410" cy="80.8" rx="14.3" ry="14.2"/>
	<rect x="464.1" y="27.8" class="st0" width="35.2" height="45.6"/>
	<rect x="469.5" y="91.4" class="st0" width="35.2" height="45.6"/>
	<rect x="552.6" y="76.8" class="st0" width="35.2" height="45.6"/>
	<rect x="652.9" y="68.6" class="st0" width="35.2" height="45.6"/>
	
		<rect x="600.5" y="12.8" transform="matrix(6.123234e-17 -1 1 6.123234e-17 582.1636 653.769)" class="st0" width="34.9" height="46"/>
	<rect x="626.1" y="290.2" class="st0" width="35.2" height="45.6"/>
	<rect x="620.9" y="365.3" class="st0" width="35.2" height="45.6"/>
	<ellipse class="st0" cx="584.6" cy="244.2" rx="14.3" ry="14.2"/>
	<ellipse class="st0" cx="584.6" cy="294.4" rx="14.3" ry="14.2"/>
	<rect x="446.5" y="223.5" class="st0" width="35.2" height="34.9"/>
	<rect x="511.5" y="213.3" class="st0" width="35.2" height="34.9"/>
	<rect x="511.5" y="271.6" class="st0" width="35.2" height="32.5"/>
	
		<rect x="511.6" y="323.1" transform="matrix(6.123234e-17 -1 1 6.123234e-17 188.3934 869.7695)" class="st0" width="34.9" height="35.2"/>
	<text transform="matrix(1.0092 0 0 1 274.1367 169.1113)" class="st2 st3 st4">1</text>
	<text transform="matrix(1.0092 0 0 1 262.0068 113.4448)" class="st2 st3 st4">2</text>
	<text transform="matrix(1.0092 0 0 1 324.3955 128.9927)" class="st2 st3 st4">3</text>
	<text transform="matrix(1.0092 0 0 1 340.6846 48.2129)" class="st2 st3 st5">A</text>
	<text transform="matrix(1.0092 0 0 1 396.6216 43.0396)" class="st2 st3 st5">B</text>
	<text transform="matrix(1.0092 0 0 1 402.4541 88.0518)" class="st2 st3 st5">C</text>
	<text transform="matrix(1.0092 0 0 1 473.0293 61.5308)" class="st2 st3 st4">4</text>
	<text transform="matrix(1.0092 0 0 1 478.1123 124.7925)" class="st2 st3 st4">5</text>
	<text transform="matrix(1.0092 0 0 1 559.7119 110.3501)" class="st2 st3 st4">6</text>
	<text transform="matrix(1.0092 0 0 1 608.1787 46.1343)" class="st2 st3 st4">7</text>
	<text transform="matrix(1.0092 0 0 1 661.3076 103.8076)" class="st2 st3 st4">8</text>
	<text transform="matrix(1.0092 0 0 1 635.1006 326.1006)" class="st2 st3 st4">9</text>
	<text transform="matrix(1.0092 0 0 1 620.8984 398.7939)" class="st2 st3 st4 st6">10</text>
	<text transform="matrix(1.0092 0 0 1 511.4736 350.1934)" class="st2 st3 st4 st6">11</text>
	<text transform="matrix(1.0092 0 0 1 510.4326 298.0684)" class="st2 st3 st4 st6">12</text>
	<text transform="matrix(1.0092 0 0 1 511.7803 241.9585)" class="st2 st3 st4 st6">13</text>
	<text transform="matrix(1.0092 0 0 1 446.4609 251.3281)" class="st2 st3 st4 st6">14</text>
	<text transform="matrix(1.0092 0 0 1 578.1299 251.3286)" class="st2 st3 st5">D</text>
	<text transform="matrix(1.0092 0 0 1 576.4385 302.0498)" class="st2 st3 st5">E</text>
	<text transform="matrix(1.0092 0 0 1 326.8418 380.8477)" class="st2 st7 st8">BAR</text>
	<text transform="matrix(1.0092 0 0 1 253.7207 500.5635)" class="st2 st7 st8">OFFICE</text>
	<text transform="matrix(1.0092 0 0 1 138.7695 241.9595)" class="st2 st7 st8">FUMOIR</text>
	<text transform="matrix(1.0092 0 0 1 124.8555 122.3999)" class="st2 st7 st8">WC</text>
	<g>
		<defs>
			<polygon id="SVGID_1_" points="757.9,457.8 757.9,457.8 757.9,457.9 			"/>
		</defs>
		<defs>
			<polygon id="SVGID_2_" points="757.7,457.7 757.6,457.7 757.7,457.6 			"/>
		</defs>
		<use xlink:href="#SVGID_1_"  style="overflow:visible;fill:#010101;"/>
		<use xlink:href="#SVGID_2_"  style="overflow:visible;fill:#010101;"/>
		<clipPath id="SVGID_3_">
			<use xlink:href="#SVGID_1_"  style="overflow:visible;"/>
		</clipPath>
		<clipPath id="SVGID_4_" class="st9">
			<use xlink:href="#SVGID_2_"  style="overflow:visible;"/>
		</clipPath>
		<rect x="757.8" y="457.8" class="st10" width="146.2" height="144.8"/>
		<use xlink:href="#SVGID_1_"  style="overflow:visible;fill:none;stroke:#F9F9FA;stroke-miterlimit:10;"/>
		<use xlink:href="#SVGID_2_"  style="overflow:visible;fill:none;stroke:#F9F9FA;stroke-miterlimit:10;"/>
	</g>
</g>
</svg>
