<?xml version="1.0" encoding="utf-8"?>
<!-- Generator: Adobe Illustrator 25.0.0, SVG Export Plug-In . SVG Version: 6.00 Build 0)  -->
<svg version="1.1" xmlns="http://www.w3.org/2000/svg" xmlns:xlink="http://www.w3.org/1999/xlink" x="0px" y="0px"
	 viewBox="0 0 1000 1000" style="enable-background:new 0 0 1000 1000;" xml:space="preserve">
<style type="text/css">
	.st0{display:none;}
	.st1{display:inline;}
	.st2{fill:none;stroke:#F4F4F5;stroke-width:3;stroke-miterlimit:10;}
	.st3{fill:none;stroke:#F4F4F5;stroke-width:2;stroke-miterlimit:10;}
	.st4{fill:#F4F4F5;}
	.st5{fill:#181816;}
	.st6{font-family:'Arial-Black';}
	.st7{font-size:68.4624px;}
	.st8{font-size:54.9233px;}
	.st9{letter-spacing:-5;}
	.st10{font-size:44.4252px;}
	.st11{fill:#F4F4F5;stroke:#181816;stroke-miterlimit:10;}
	.st12{letter-spacing:-7;}
	.st13{font-size:37.0489px;}
	.st14{letter-spacing:-6;}
	.st15{font-size:40.0044px;}
	.st16{font-size:35.5601px;}
	.st17{letter-spacing:-3;}
</style>
<g id="Calque_1" class="st0">
	<rect class="st1" width="1000" height="1000"/>
</g>
<g id="Plan">
	<polygon class="st2" points="975.9,782.5 712.7,781.4 566.8,635.5 510,691.7 592.1,782.5 69.9,778.5 69.9,746.4 25.9,746.4 
		25.9,600.8 69.7,600.8 69.7,377 475,160 501.5,238.4 635.5,200.5 654.2,340.3 704.7,333.2 918.6,249.9 913,234.5 975.9,213.7 	"/>
	<polygon class="st2" points="712.7,781.4 566.8,635.5 546.7,562.3 581.2,525.8 751.2,525.8 751.2,604.8 867.7,721.2 829.1,721.2 
		713.5,605.7 713.5,562.3 579.5,562.3 590.9,609.3 763.9,782.4 	"/>
	<polyline class="st2" points="111.5,702.3 111.5,742.5 152.9,742.5 152.9,779.2 	"/>
	<line class="st2" x1="69.6" y1="749.1" x2="69.6" y2="703.4"/>
	<line class="st2" x1="67.6" y1="513.3" x2="153.9" y2="513.3"/>
	<line class="st2" x1="69.6" y1="575" x2="154.5" y2="575"/>
	<line class="st2" x1="974.6" y1="623.6" x2="949.2" y2="623.6"/>
	<line class="st2" x1="974.6" y1="706.2" x2="949.2" y2="706.2"/>
	<polygon class="st2" points="475,160 302,253.5 286.7,340.3 273.6,495.9 293.8,499.3 321.5,350 342.9,383.6 337.1,433.9 
		397.7,562.3 416.8,553.8 386.2,414.2 449.1,389 570,399.8 513.4,331.6 501.5,238.4 	"/>
	<line class="st2" x1="556.3" y1="383.2" x2="654.2" y2="340.3"/>
	<line class="st2" x1="389.4" y1="428.6" x2="479.7" y2="391.7"/>
	<line class="st2" x1="393.2" y1="440.5" x2="504.9" y2="393.9"/>
	<line class="st2" x1="394.4" y1="456.7" x2="529.2" y2="396.1"/>
	<line class="st2" x1="401" y1="482.6" x2="572.1" y2="400.4"/>
	<line class="st2" x1="397.9" y1="467.9" x2="551.5" y2="398.1"/>
	<rect x="202.3" y="456.2" class="st3" width="37.4" height="37.4"/>
</g>
<g id="Tables">
	<circle class="st4" cx="927.5" cy="569.3" r="37.9"/>
	<circle class="st4" cx="927.5" cy="474.9" r="37.9"/>
	<circle class="st4" cx="927.5" cy="380.4" r="37.9"/>
	<text transform="matrix(1 0 0 1 904.698 592.8918)" class="st5 st6 st7">1</text>
	<text transform="matrix(1 0 0 1 904.6979 498.0001)" class="st5 st6 st7">2</text>
	<text transform="matrix(1 0 0 1 905.6978 405.2387)" class="st5 st6 st7">3</text>
	<circle class="st4" cx="772" cy="368.3" r="37.9"/>
	<text transform="matrix(1 0 0 1 747.1255 393.0959)" class="st5 st6 st7">4</text>
	<circle class="st4" cx="463.1" cy="648.3" r="37.9"/>
	<text transform="matrix(1 0 0 1 429.1701 668.665)" class="st5 st6 st8 st9">20</text>
	<circle class="st4" cx="585.7" cy="441.5" r="24.6"/>
	<text transform="matrix(1 0 0 1 571.637 457.6549)" class="st5 st6 st10">5</text>
	<circle class="st4" cx="526.9" cy="474.9" r="24.6"/>
	<text transform="matrix(1 0 0 1 512.8347 490.9664)" class="st5 st6 st10">6</text>
	<circle class="st4" cx="468" cy="506.9" r="24.6"/>
	<text transform="matrix(1 0 0 1 453.913 522.9778)" class="st5 st6 st10">7</text>
	<circle class="st4" cx="511.1" cy="586.9" r="24.6"/>
	<text transform="matrix(1 0 0 1 496.9885 602.9799)" class="st5 st6 st10">8</text>
	<path class="st4" d="M607.1,303.8l-40.2,11.3c-11.2,3.2-22.9-3.4-26.1-14.7l-1.4-5c-3.2-11.2,3.4-22.9,14.7-26.1l40.2-11.3
		c11.2-3.2,22.9,3.4,26.1,14.7l1.4,5C624.9,289,618.3,300.7,607.1,303.8z"/>
	<text transform="matrix(1 0 0 1 565.8452 303.0856)" class="st5 st6 st10">9</text>
	<text transform="matrix(1 0 0 1 343.5906 471.2611)" class="st11 st6 st10 st12">10</text>
	<text transform="matrix(1 0 0 1 266.8881 436.9942)" class="st11 st6 st10 st12">11</text>
	<path class="st4" d="M282.1,323.9l-44,22.4c-4.8,2.4-10.6,0.5-13-4.2l-9.7-19c-2.4-4.8-0.5-10.6,4.2-13l44-22.4
		c4.8-2.4,10.6-0.5,13,4.2l9.7,19C288.7,315.7,286.8,321.5,282.1,323.9z"/>
	<path class="st4" d="M212.1,359.5l-44,22.4c-4.8,2.4-10.6,0.5-13-4.2l-9.7-19c-2.4-4.8-0.5-10.6,4.2-13l44-22.4
		c4.8-2.4,10.6-0.5,13,4.2l9.7,19C218.8,351.2,216.9,357.1,212.1,359.5z"/>
	<path class="st4" d="M143.3,394.4l-44,22.4c-4.8,2.4-10.6,0.5-13-4.2l-9.7-19c-2.4-4.8-0.5-10.6,4.2-13l44-22.4
		c4.8-2.4,10.6-0.5,13,4.2l9.7,19C150,386.2,148.1,392,143.3,394.4z"/>
	<path class="st4" d="M120.3,443.2v49.4c0,5.3-4.3,9.7-9.7,9.7H89.3c-5.3,0-9.7-4.3-9.7-9.7v-49.4c0-5.3,4.3-9.7,9.7-9.7h21.3
		C116,433.5,120.3,437.8,120.3,443.2z"/>
	<text transform="matrix(1 0 0 1 225.83 330.4074)" class="st5 st6 st13 st14">12</text>
	<text transform="matrix(1 0 0 1 158.4067 366.2708)" class="st5 st6 st13 st14">13</text>
	<text transform="matrix(1 0 0 1 89.2739 400.4459)" class="st5 st6 st13 st14">14</text>
	<text transform="matrix(1 0 0 1 77.5274 481.9952)" class="st5 st6 st13 st14">15</text>
	<path class="st4" d="M139.9,631.5H98.2c-11.7,0-21.1-9.5-21.1-21.1v-5.2c0-11.7,9.5-21.1,21.1-21.1h41.7c11.7,0,21.1,9.5,21.1,21.1
		v5.2C161,622.1,151.6,631.5,139.9,631.5z"/>
	<text transform="matrix(1 0 0 1 92.8086 624.2571)" class="st5 st6 st10 st14">16</text>
	<path class="st4" d="M82.4,703l-29.5-29.5c-8.3-8.3-8.3-21.6,0-29.9l3.7-3.7c8.3-8.3,21.6-8.3,29.9,0l29.5,29.5
		c8.3,8.3,8.3,21.6,0,29.9l-3.7,3.7C104,711.2,90.6,711.2,82.4,703z"/>
	<text transform="matrix(1 0 0 1 59.7133 687.1816)" class="st5 st6 st15 st14">17</text>
	<path class="st4" d="M239.9,769.5h-49.4c-5.3,0-9.7-4.3-9.7-9.7v-21.3c0-5.3,4.3-9.7,9.7-9.7h49.4c5.3,0,9.7,4.3,9.7,9.7v21.3
		C249.6,765.1,245.3,769.5,239.9,769.5z"/>
	<path class="st4" d="M326.2,769.5h-49.4c-5.3,0-9.7-4.3-9.7-9.7v-21.3c0-5.3,4.3-9.7,9.7-9.7h49.4c5.3,0,9.7,4.3,9.7,9.7v21.3
		C335.9,765.1,331.5,769.5,326.2,769.5z"/>
	<text transform="matrix(1 0 0 1 192.8341 761.3985)" class="st5 st6 st13 st14">18</text>
	<text transform="matrix(1 0 0 1 280.025 761.8431)" class="st5 st6 st13 st14">19</text>
	<circle class="st4" cx="368.7" cy="677.7" r="24.6"/>
	<text transform="matrix(1 0 0 1 349.0063 690.415)" class="st5 st6 st16 st17">21</text>
	<circle class="st4" cx="295.1" cy="677.7" r="24.6"/>
	<circle class="st4" cx="220.4" cy="677.7" r="24.6"/>
	<circle class="st4" cx="369.2" cy="607.7" r="24.6"/>
	<circle class="st4" cx="295.6" cy="607.7" r="24.6"/>
	<circle class="st4" cx="221" cy="607.7" r="24.6"/>
	<text transform="matrix(1 0 0 1 273.1596 690.4149)" class="st5 st6 st16 st17">22</text>
	<text transform="matrix(1 0 0 1 198.5006 690.4146)" class="st5 st6 st16 st17">23</text>
	<text transform="matrix(1 0 0 1 198.5006 619.2318)" class="st5 st6 st16 st17">24</text>
	<text transform="matrix(1 0 0 1 273.6956 619.2315)" class="st5 st6 st16 st17">27</text>
	<text transform="matrix(1 0 0 1 347.2827 619.2315)" class="st5 st6 st16 st17">28</text>
	<circle class="st4" cx="220.4" cy="520.2" r="24.6"/>
	<text transform="matrix(1 0 0 1 197.9646 531.6608)" class="st5 st6 st16 st17">26</text>
</g>
</svg>
